PathFileType        4      (X/Y/Z)      C:\Users\pc\Desktop\IMUTRC\Sujet_07\Sujet_07_velo_80.trc         
DataRate	CameraRate	NumFrames	NumMarkers	Units	OrigDataRate	OrigDataStartFrame	OrigNumFrames
60.0	60.0	4	64	mm	60.0	469	936
Frame#	Time	pHipOrigin			pRightASI			pLeftASI			pRightCSI			pLeftCSI			pRightIschialTub			pLeftIschialTub			pSacrum			pL5SpinalProcess			pL3SpinalProcess			pT12SpinalProcess			pIJ			pT4SpinalProcess			pT8SpinalProcess			pPX			pC7SpinalProcess			pTopOfHead			pRightAuricularis			pLeftAuricularis			pBackOfHead			pRightAcromion			pLeftAcromion			pRightArmLatEpicondyle			pRightArmMedEpicondyle			pLeftArmLatEpicondyle			pLeftArmMedEpicondyle			pRightUlnarStyloid			pRightRadialStyloid			pRightOlecranon			pLeftUlnarStyloid			pLeftRadialStyloid			pLeftOlecranon			pRightTopOfHand			pRightPinky			pRightBallHand			pLeftTopOfHand			pLeftPinky			pLeftBallHand			pRightGreaterTrochanter			pRightKneeLatEpicondyle			pRightKneeMedEpicondyle			pRightPatella			pLeftGreaterTrochanter			pLeftKneeLatEpicondyle			pLeftKneeMedEpicondyle			pLeftPatella			pRightTibialTub			pRightLatMalleolus			pRightMedMalleolus			pLeftTibialTub			pLeftLatMalleolus			pLeftMedMalleolus			pRightHeelFoot			pRightFirstMetatarsal			pRightFifthMetatarsal			pRightPivotFoot			pRightHeelCenter			pRightToe			pLeftHeelFoot			pLeftFirstMetatarsal			pLeftFifthMetatarsal			pLeftPivotFoot			pLeftHeelCenter			pLeftToe			
		X1	Y1	Z1	X2	Y2	Z2	X3	Y3	Z3	X4	Y4	Z4	X5	Y5	Z5	X6	Y6	Z6	X7	Y7	Z7	X8	Y8	Z8	X9	Y9	Z9	X10	Y10	Z10	X11	Y11	Z11	X12	Y12	Z12	X13	Y13	Z13	X14	Y14	Z14	X15	Y15	Z15	X16	Y16	Z16	X17	Y17	Z17	X18	Y18	Z18	X19	Y19	Z19	X20	Y20	Z20	X21	Y21	Z21	X22	Y22	Z22	X23	Y23	Z23	X24	Y24	Z24	X25	Y25	Z25	X26	Y26	Z26	X27	Y27	Z27	X28	Y28	Z28	X29	Y29	Z29	X30	Y30	Z30	X31	Y31	Z31	X32	Y32	Z32	X33	Y33	Z33	X34	Y34	Z34	X35	Y35	Z35	X36	Y36	Z36	X37	Y37	Z37	X38	Y38	Z38	X39	Y39	Z39	X40	Y40	Z40	X41	Y41	Z41	X42	Y42	Z42	X43	Y43	Z43	X44	Y44	Z44	X45	Y45	Z45	X46	Y46	Z46	X47	Y47	Z47	X48	Y48	Z48	X49	Y49	Z49	X50	Y50	Z50	X51	Y51	Z51	X52	Y52	Z52	X53	Y53	Z53	X54	Y54	Z54	X55	Y55	Z55	X56	Y56	Z56	X57	Y57	Z57	X58	Y58	Z58	X59	Y59	Z59	X60	Y60	Z60	X61	Y61	Z61	X62	Y62	Z62	X63	Y63	Z63	X64	Y64	Z64	
469	7.8	0.0	1249.97763	7.653905517926474E-14	121.10110533939417	1326.75996	124.10875269941869	85.10736606333639	1312.42825	-157.50930212006185	100.82889125456248	1407.99774	97.14193747626061	71.18939635171019	1396.26504	-134.59081144132048	-68.46699095245367	1219.97758	69.28128697100853	-83.30530407375281	1214.11123	-46.55292080428547	-56.3441076945315	1297.13119	4.768897234061179	20.263742316128166	1380.22541	-8.365111243017349	106.73095255702304	1466.5127	-24.467092568987244	188.34905305696878	1542.92374	-39.59590945215607	453.55837534474745	1517.67617	-84.89175029549786	362.27528564150293	1645.5477	-71.14150105761082	278.28965750823954	1606.93376	-55.92190602521259	341.01510755748916	1460.12655	-64.46637243813674	416.3964759813163	1668.93883	-79.33743249227355	690.2718442335129	1673.5428	-101.62342524671443	594.5260981160396	1642.72591	-26.8267083626602	585.6115481825599	1663.51803	-169.85189495126352	579.1661261893937	1708.29534	-89.62855658287775	441.2071849681149	1599.21097	105.36285897078557	387.0555306911717	1618.14665	-262.28024450764445	462.9928836212918	1312.42825	79.95568202509827	432.05785597512454	1313.69063	23.338481641807757	397.51817593118125	1320.37381	-264.21393764490966	363.40820777217755	1314.87875	-209.73769974895853	544.9537081448553	1068.71491	37.50050972004892	593.6906935210687	1091.73476	32.541154840705936	422.7082988337902	1305.52229	56.611629638867235	443.7415991682502	1063.07134	-261.106775191273	492.9296611334861	1079.77929	-276.35237764090783	356.0429070548462	1313.69063	-231.13910469351717	738.6089182766383	1037.89802	130.10046662137373	659.0315794646335	1013.54154	84.0707205748887	603.4894584460787	1051.04161	41.11381613916479	579.2936916276593	1002.03162	-418.2164664032438	525.1775316809108	991.0415	-340.8212078649514	495.0746064071985	1038.26931	-284.3744718344323	48.61625892158293	1242.99742	171.09168947389477	441.5098775796939	1042.87328	118.05641998845492	436.2729172616191	1040.64555	32.37444133658256	457.19726552042664	1086.01693	70.09294703706253	-19.078696648931896	1223.17065	-177.10364806185586	155.93355756321472	819.8778	-239.49072430445415	180.19834730016208	810.44709	-157.6569529638228	210.01399754724872	837.84813	-205.4377740524804	477.06482464384834	996.38804	78.30516521291756	268.7209260030549	649.67946	167.23618310575225	266.72550456839224	640.39726	102.3753944131	208.31692442464504	766.04107	-213.19145717997125	0.021818859902793974	408.34236	-199.3451113739149	22.249721522921455	403.81265	-137.89426813195877	207.73134524136108	575.42189	139.6551557173313	369.91850127057546	531.46141	117.45212113963093	364.50274032389433	541.56044	196.04055426093007	389.11770109666696	530.94161	157.86165157617282	248.04953192799752	570.37238	143.0399679070299	477.95913918915045	507.25344	167.05336698250645	-60.547404989806516	355.17395	-141.36691829120574	86.92986184099625	272.74805	-155.17089740354857	58.89250106245101	272.37676	-229.5793040249693	91.54259350500877	261.23812	-198.20996300729996	-25.525445614411097	338.9858	-154.5018913100038	165.62678407994449	213.34199	-225.834285120704	
470	7.817	0.0	1249.97763	7.653905517926474E-14	122.48677348373641	1326.01738	123.19386507098824	83.3782992489658	1313.24508	-158.07885054789074	101.94470678513574	1407.47793	96.84294828543332	69.85347529545085	1396.93336	-134.50464829697825	-67.7695443753954	1219.60629	69.85545406397858	-83.81516012023785	1214.40826	-45.8183442272272	-56.26523768964435	1297.13119	5.67189037840343	20.24384940909823	1380.22541	-8.033615717331253	106.56520912430702	1466.58696	-24.477036522502214	188.24033253128272	1542.92374	-40.00165997784217	453.106269809287	1517.67617	-86.78194053769734	361.9862540644446	1645.5477	-72.42306368115415	278.04503041038237	1607.00802	-56.83483946281578	340.66175993394586	1460.12655	-65.785056401426	416.09020731128794	1668.93883	-80.88617959501788	689.8396316050824	1673.46854	-103.8451110146	594.2496799668103	1642.65165	-28.87269808406073	585.1050755541295	1663.44377	-171.94495862617893	578.7239559471942	1708.22108	-91.6844952577933	441.49959130297367	1599.28523	103.81677634235513	385.8734499232861	1618.22091	-263.6486805590166	463.07975204912066	1312.50251	79.06264149452502	431.93190701672245	1313.61637	22.665551636920608	396.9420633076379	1320.44807	-265.1467813100508	363.0893256743203	1315.02726	-210.52201975384568	544.8721600054002	1068.64065	37.196195240847864	593.6091540418677	1091.73476	32.236845361504926	422.6837822616191	1305.52229	55.91151358749507	443.6700086425641	1063.29411	-261.5768367634442	492.9223766542851	1080.00206	-276.78530055282494	355.5954028640189	1313.76488	-231.99768469840436	738.4531151371832	1037.97228	129.92476557488862	658.8757763251783	1013.54154	83.89501952840365	603.4722213531086	1051.04161	40.84663165996367	579.4793366276592	1002.18013	-418.5380129754149	525.1974332481948	991.19001	-341.15269839063745	495.0673269279974	1038.49208	-284.80740340660344	48.98487944726903	1240.84395	171.04727999469372	437.6605747041769	1032.69999	117.89190814257148	432.85654595827316	1031.51187	32.202650011498044	454.57978184062404	1075.99215	70.46814175846303	-20.810419277362342	1224.35877	-177.07451648479758	163.87430991793286	826.41247	-245.96727083314815	189.49491727842354	816.75899	-164.55114450229112	217.88315937628073	845.42241	-212.38438215334554	475.823065154873	988.21971	77.93121573860367	282.7783080672093	632.15467	164.71980314922936	281.31724559094874	623.16951	99.82455759114507	213.87024757876156	770.86781	-219.24573503374972	-12.744756910679953	424.97606	-195.0545535005878	9.990323664255783	420.59486	-133.7396081705487	224.88621651100422	555.66938	136.52624708100578	388.669202256732	518.46634	113.78689435407603	382.91199317059574	527.4515	192.52117300106121	407.8683884225695	518.31782	154.19642845087196	265.4072802906107	552.17927	139.85670583798836	497.68709331964925	498.04551	163.18064809909433	-74.3853954720155	374.62943	-136.40875570136527	70.34577058601457	287.5253	-149.91180875256154	42.095587421238335	287.30253	-224.10009618804222	74.51561672434099	275.42132	-192.7778341238878	-39.8978050550222	357.25316	-149.50925453422317	146.8853217638163	224.92617	-220.10584018103253	
471	7.833	0.0	1249.97763	7.653905517926474E-14	123.90956296782463	1325.20055	122.21466139607276	81.48349766213323	1314.28469	-158.6583379292346	103.087698362194	1406.80962	96.64540880134513	68.14893371350543	1397.82445	-134.37407567343493	-66.9063543656211	1219.16074	70.43956511046362	-84.32501616672288	1214.70529	-45.08376765016892	-56.15918163827216	1297.05693	6.67631590897667	20.11256284181426	1380.29967	-7.509200712444104	106.36233203133695	1466.73547	-24.422683089786172	187.86442386614152	1543.07225	-40.39018707081224	452.4612261343716	1517.75042	-88.78351211964277	361.5042843479313	1645.69621	-73.81600764444345	277.5975398798091	1607.15653	-57.69342312795696	340.14267887768654	1460.27507	-67.11370163873832	415.52670311557347	1669.08735	-82.58344169776227	689.1873084509659	1673.5428	-106.27961416871649	593.6888489056637	1642.80017	-31.168630191692202	584.3413674000129	1663.51803	-174.18653730109446	578.1631248860477	1708.29534	-93.9804273654248	441.70052286537054	1599.508	102.13213266743965	384.39701228996853	1618.29517	-265.10131556390377	463.0452865234346	1312.72528	78.52827753612289	431.4916823050962	1313.61637	22.239903204204577	396.2002022513786	1320.59658	-266.08956026845294	362.73331857646315	1315.25004	-211.24203737250187	544.5777944797142	1068.78917	37.111991287332906	593.3247374696965	1091.80902	31.986889315019834	422.51075934970197	1305.67081	55.46863806180897	443.75421259607907	1063.59114	-261.8712022891303	492.905144561315	1080.37335	-277.05249369228005	354.9821602404756	1313.9134	-232.86621731706043	738.1587496114971	1038.04654	129.84056162137372	658.6185407994923	1013.69005	83.74650452840368	603.2149858274227	1051.11587	40.698116659963695	579.7465161068603	1002.47716	-418.5552414081308	525.4374316809108	991.5613	-341.27136786983846	495.17871192799737	1038.86337	-285.00032788580455	49.086320493754066	1238.09642	171.02009894820867	431.79247181399836	1019.11086	118.10526049240245	427.6242480729818	1019.18511	32.35435578915793	450.32934344430805	1062.55153	71.44395701532393	-22.606452952277834	1225.62115	-177.08251490773932	173.70790832891035	834.72932	-253.4946029021897	200.92434540591438	825.07583	-172.61479472056212	227.5908088288561	855.15015	-220.58464422727423	472.7726499028992	976.70979	78.31368993920523	294.9382240702172	612.17939	162.22261081624978	294.2144076453289	603.49125	97.23853763950933	221.3164254493915	777.47673	-226.35079342787583	-23.168335280370258	445.0256	-191.5548861676082	0.2768189597066666	440.64441	-130.43020450271032	239.90628776109872	533.91191	132.93652054253747	404.89657247011576	502.57522	110.03674467126544	398.77074285829343	510.37226	188.8154327974517	424.0314562497223	502.57522	150.40915376806137	280.49165392693624	531.75844	136.30410429952005	514.357339058719	485.19895	159.25747550436662	-86.04610966553997	397.64927	-132.2514262656413	55.58755352674733	305.42138	-145.14194697678096	27.070187222515997	305.27286	-219.3130196397996	59.148780706671616	292.72333	-187.84489338970502	-52.23145791368787	378.93637	-145.2259811400971	129.63823945746245	239.4064	-214.88653734410542	
472	7.85	0.0	1249.97763	7.653905517926474E-14	125.36948611216688	1324.45797	121.17116033492627	79.48725136856157	1315.47281	-159.21065792434743	104.19356493925228	1406.21556	96.51217170348791	66.471569517791	1398.7898	-134.14207566366065	-65.97883964910773	1218.64094	71.06080249669462	-84.8720022132079	1214.92806	-44.284880026625615	-56.11742797313098	1296.98267	7.643616439549917	19.98127993478432	1380.37392	-6.984772047302914	106.0580175521359	1466.88399	-24.341134950331078	187.48851886125436	1543.29503	-40.77870050352828	451.71474641297107	1517.89894	-90.75791131535713	360.85658119870186	1645.91898	-75.21891288175577	277.12286330275083	1607.37931	-58.653439179329126	339.5592817749422	1460.49784	-68.4794682157966	414.83458548714304	1669.23586	-84.3549588005066	688.4706742503643	1673.76557	-108.75124732283304	593.0637031377782	1643.02294	-33.50170595957785	583.4861621529263	1663.66654	-176.56667836224096	577.3722356854462	1708.51811	-96.32344708682531	441.69856867454325	1599.80503	100.50183742524017	382.6905165171959	1618.36943	-266.60103818255993	462.88220390477846	1313.02231	77.91964491746674	431.051471253724	1313.69063	21.81425111123451	395.35690514863427	1320.7451	-267.0051668406241	362.23874043212084	1315.39855	-211.87056289818796	544.3477450005131	1068.93768	37.064908673563885	593.0675019440105	1091.95753	31.83837431501986	422.1719806845608	1305.89358	55.015799922353885	443.69985916336304	1063.81391	-262.0740793821003	492.81365612859895	1080.74464	-277.19105107851107	354.3317962771863	1314.06191	-233.67043388923165	737.827259085811	1038.34357	129.8206600540897	658.3513563202913	1013.91283	83.76374162137378	602.8834953017365	1051.26438	40.678215092679785	579.8850871533455	1002.77419	-418.64673350110104	525.5116916809108	991.85833	-341.3999899628086	495.1515308815124	1039.1604	-285.10176893228953	48.856257354298954	1235.20038	170.97301999469371	424.02422106785133	1003.29399	118.9364654706639	420.75899547117706	1004.55637	33.10668210227818	444.61170608470275	1046.58616	73.03035542141426	-24.209553487738233	1227.03205	-176.97912333068103	184.61025697720012	844.30854	-261.0908646828575	213.32107406397844	834.5808	-180.7201986039742	238.2558148584897	866.21453	-228.66091653362813	467.50054888303987	963.04639	79.1283767682373	304.52044720748233	590.86746	159.4376134930445	304.5338804942202	582.62487	94.36472635790194	229.89564728331067	785.79358	-233.4876615336281	-30.54877421703381	466.85733	-188.8706109471473	-6.5221770650397985	462.55039	-128.01045794739062	251.77716352679434	511.33761	129.15776058601458	417.53187533366867	484.45637	106.27059814257146	411.1017399028992	491.43658	185.13083940821278	436.5924991132751	484.60489	146.77162933233743	292.3897107391168	510.22375	132.6267853894822	527.3884434944431	469.5306	155.54836054295666	-94.7280127930308	422.15427	-128.94662894243604	43.56816276105173	325.02537	-141.10595149457197	14.912225410335367	325.02537	-215.18553206462053	46.55789232231985	311.65901	-183.71013499557898	-61.623421046065864	402.17899	-141.7309238120047	115.15716449116526	255.6688	-210.2996597542649	
